<svg id="noun-arrows-779785" xmlns="http://www.w3.org/2000/svg" width="37.569" height="31.226" viewBox="0 0 37.569 31.226">
  <path id="Path_2267" data-name="Path 2267" d="M515.81,66.2a3.649,3.649,0,0,0,1.067,2.6L528.8,80.735a3.426,3.426,0,0,0,3.83.811,3.968,3.968,0,0,0,2.461-3.534,3.47,3.47,0,0,0-1.084-2.482L524.685,66.2l9.324-9.325a3.475,3.475,0,0,0,1.084-2.482h0a3.968,3.968,0,0,0-2.46-3.534,3.43,3.43,0,0,0-3.831.81L516.876,63.6a3.652,3.652,0,0,0-1.066,2.6Z" transform="translate(-497.524 -50.591)" fill="#fff"/>
  <path id="Path_2268" data-name="Path 2268" d="M6.642,68.807,18.568,80.735a3.426,3.426,0,0,0,3.83.811,3.968,3.968,0,0,0,2.461-3.534,3.47,3.47,0,0,0-1.084-2.482L14.45,66.2l9.324-9.325A3.475,3.475,0,0,0,24.858,54.4h0a3.968,3.968,0,0,0-2.46-3.534,3.43,3.43,0,0,0-3.831.81L6.641,63.6a3.71,3.71,0,0,0,0,5.206Z" transform="translate(-5.575 -50.591)" fill="#fff"/>
</svg>
