<svg id="noun-arrows-779785" xmlns="http://www.w3.org/2000/svg" width="19.85" height="16.496" viewBox="0 0 19.85 16.496">
  <path id="Path_2267" data-name="Path 2267" d="M515.81,58.839a1.927,1.927,0,0,0,.563,1.375l6.3,6.3a1.81,1.81,0,0,0,2.023.428,2.1,2.1,0,0,0,1.3-1.867,1.833,1.833,0,0,0-.573-1.311L520.5,58.839l4.925-4.926A1.836,1.836,0,0,0,526,52.6h0a2.1,2.1,0,0,0-1.3-1.867,1.812,1.812,0,0,0-2.024.428l-6.3,6.3a1.929,1.929,0,0,0-.563,1.375Z" transform="translate(-506.147 -50.591)"/>
  <path id="Path_2268" data-name="Path 2268" d="M6.139,60.214l6.3,6.3a1.81,1.81,0,0,0,2.023.428,2.1,2.1,0,0,0,1.3-1.867,1.833,1.833,0,0,0-.573-1.311l-4.925-4.926,4.925-4.926a1.836,1.836,0,0,0,.573-1.311h0a2.1,2.1,0,0,0-1.3-1.867,1.812,1.812,0,0,0-2.024.428l-6.3,6.3a1.96,1.96,0,0,0,0,2.75Z" transform="translate(-5.575 -50.591)"/>
</svg>
