<svg xmlns="http://www.w3.org/2000/svg" xmlns:xlink="http://www.w3.org/1999/xlink" id="Layer_1" x="0px" y="0px" viewBox="0 0 626 324" style="enable-background:new 0 0 626 324;" xml:space="preserve"><style type="text/css">	.st0{clip-path:url(#SVGID_00000160912101092363041250000016453117049876865692_);fill:#FAEA26;}	.st1{fill:#E32185;}	.st2{fill:#FFFFFF;}	.st3{clip-path:url(#SVGID_00000127732986693697632430000013869500568146298508_);fill:#FFFFFF;}	.st4{clip-path:url(#SVGID_00000006683368020837389560000013970704794247249555_);fill:#FAEA26;}</style><g>	<g>		<g>			<g>				<g>					<defs>						<rect id="SVGID_1_" y="4.91" width="626" height="314"></rect>					</defs>					<clipPath id="SVGID_00000058569912553672156560000005945852631637477551_">						<use xlink:href="#SVGID_1_" style="overflow:visible;"></use>					</clipPath>					<path style="clip-path:url(#SVGID_00000058569912553672156560000005945852631637477551_);fill:#FAEA26;" d="M70.22,243.49      c-4.06-1.05-8.01-2.5-11.75-4.33c-13.08-6.31-23.17-16.8-29.16-30.32c-4.63-10.44-6.28-21.65-4.91-33.34      c-8.25-6.2-14.75-14.31-18.85-23.55c-2.82-6.37-7.1-19.48-4.06-35.75l0.34-1.69l0.15-0.64c4.5-19.09,16.65-33.48,36.11-42.8      l0.61-0.29l33.46-14.84l1.38-0.51l0.5-0.19c2.51-0.97,7.75-2.99,14.53-4.1c2.54-0.42,5.16-0.68,7.82-0.78      c9.22-7.29,18.57-10.29,22.62-11.59l0.64-0.21l35.06-10.16l2.11-0.48c2.58-0.61,8.01-1.9,14.89-2.08      c0.43-0.01,1.07-0.02,1.71-0.02c4.26,0,8.55,0.45,12.77,1.34c11.4-7.69,24.77-12.8,38.74-14.81c4.42-0.63,8.92-0.95,13.38-0.95      c9.29,0,18.46,1.36,27.25,4.05l0.33,0.1c4.08,1.28,8.06,2.84,11.86,4.64c14.57-9.42,31.71-14.39,49.66-14.39      c0.54,0,1.09,0,1.63,0.01c9.57,0.16,24.22,1.95,39.64,9.51l0.35,0.18c2.34,1.17,4.63,2.45,6.86,3.81      c3.16-1.55,6.49-2.86,9.92-3.89l0.95-0.27c3.99-1.12,10.21-2.59,18.36-2.59c4.15,0,8.3,0.4,12.35,1.19      c4.64,0.89,13.68,3.27,23.07,9.29c3.96-0.73,8-1.09,12-1.09c4.14,0,8.3,0.4,12.37,1.18c15.18,2.93,24.7,10.28,27.83,12.7      l0.67,0.53c2.37,1.89,4.59,3.92,6.63,6.07c3.04-0.74,6.18-1.27,9.34-1.57l0.79-0.07c0.91-0.08,2.98-0.24,5.66-0.24      c8.62,0,16.98,1.63,24.83,4.84c5.41,2.21,13.34,6.36,20.89,13.68c8.3,0.14,16.3,1.77,23.86,4.85      c14.28,5.84,22.17,14.89,24.76,17.86l0.61,0.71c12.89,15.32,17.44,34.13,13.54,55.93l-0.31,1.63l-12.46,55.14      c-0.46,1.96-1.53,6.45-3.77,11.93c-2.73,6.65-6.18,12.36-10.56,17.46l-0.31,0.35l-1.98,2.14l-0.33,0.33      c-7.2,7.25-16.05,12.69-25.59,15.75l-256.64,75.61L70.22,243.49"></path>				</g>			</g>		</g>		<path class="st1" d="M593.38,97.26l-0.42-0.49c-1.71-1.97-6.92-7.94-16.18-11.73c-5.17-2.11-10.67-3.18-16.34-3.18   c-0.85,0-1.71,0.02-2.58,0.07l-0.38,0.02l-1.14,0.1c-1.61,0.18-3.15,0.43-4.62,0.75c-6.35-9.76-15.02-14.39-19.71-16.32   c-5.1-2.08-10.55-3.14-16.19-3.14c-1.77,0-3.18,0.11-3.78,0.15l-0.5,0.04c-8.42,0.8-14.93,3.82-19.9,7.41   c-2.2-5.61-5.95-11.56-12.4-16.71l-0.47-0.37c-2.07-1.59-8.36-6.45-18.19-8.35c-2.65-0.51-5.36-0.77-8.07-0.77   c-3.72,0-7.47,0.49-11.13,1.45l-0.34,0.09l-1.09,0.32c-1.55,0.48-3.01,1.04-4.39,1.64c-8.16-8.34-17.57-11.17-22.49-12.12   c-2.61-0.51-5.3-0.77-7.98-0.77c-5.35,0-9.52,0.99-12.19,1.74l-0.52,0.15c-7.51,2.27-13.04,6.08-17.12,10.19   c-4.75-4.55-10.25-8.43-16.46-11.54l-0.2-0.1c-11.64-5.71-22.71-7.06-29.96-7.18c-0.41-0.01-0.83-0.01-1.24-0.01   c-18.56,0-35.49,7.05-47.84,19.23c-5.99-4.55-12.84-8.11-20.45-10.5l-0.22-0.07c-6.62-2.02-13.54-3.05-20.58-3.05   c-3.39,0-6.79,0.24-10.13,0.72c-14.59,2.09-27.48,8.36-37.42,17.7c-5.62-2.7-11.67-3.99-17.32-3.99c-0.38,0-0.76,0-1.13,0.02   c-4.49,0.12-8.16,0.98-10.41,1.52l-1.46,0.33l-34.06,9.87l-0.37,0.12c-4.22,1.36-13.7,4.41-20.97,13.16   c-2.09-0.33-4.21-0.51-6.39-0.51c-2.17,0-4.32,0.18-6.4,0.52c-4.44,0.72-7.96,2.08-10.07,2.9l-0.63,0.24l-0.79,0.29L48.33,91.48   l-0.36,0.17c-5.32,2.55-19.48,9.33-23.73,27.36l-0.07,0.31l-0.22,1.07c-1.91,10.21,0.73,18.32,2.48,22.28   c3.47,7.8,9.71,14.27,17.62,18.23c1.95,0.97,3.93,1.77,5.97,2.4l-2,9.31l-0.11,0.59c-0.93,4.79-2.86,14.75,2.3,26.38   c3.77,8.5,10.1,15.09,18.31,19.05c2.56,1.25,5.2,2.2,7.91,2.86l236.14,73.36l249.49-73.49l-0.07-0.04   c6.11-1.96,11.8-5.4,16.44-10.07l0.33-0.33l0.83-0.89l0.33-0.38c2.76-3.21,4.96-6.86,6.74-11.2c1.57-3.85,2.35-7.14,2.69-8.54   l12.32-54.54l0.2-1.01C602.92,128.26,605.82,112.05,593.38,97.26"></path>		<path class="st2" d="M130.6,156.79c-4.76-2.32-8.82-0.52-12.4,1.06l-17.72,7.86l10.04-46.77c1.17-5.07,1.41-7.95-0.23-11.64   c-3.16-7.12-10.13-7.95-13.71-7.32c-1.74,0.27-3.37,0.91-4.82,1.46c-0.33,0.13-0.66,0.25-0.99,0.38l-31.3,13.88   c-3.55,1.7-7.98,3.82-9.3,9.45l-0.04,0.16c-0.62,3.34,0.33,5.86,0.64,6.55c0.56,1.26,1.97,3.61,5.15,5.2   c5.39,2.69,10,0.64,13.37-0.86l15.26-6.77l-10.43,48.53l-0.06,0.32c-0.62,3.21-1.27,6.53,0.5,10.5c1.2,2.7,3.09,4.69,5.58,5.88   c1.92,0.94,3.79,1.3,5.57,1.3c3.32,0,6.36-1.25,8.84-2.27l33.05-14.66c3.74-1.66,7.98-3.54,9.25-9.38c0.72-3.41-0.09-6-0.64-7.23   C135.57,160.98,133.98,158.33,130.6,156.79"></path>		<path class="st2" d="M199.09,136.19c-4.41-2.95-8.67-1.71-12.43-0.62l-18.61,5.4l16.25-44.99c1.84-4.86,2.47-7.69,1.34-11.57   c-2.17-7.48-8.96-9.23-12.59-9.11c-1.75,0.04-3.46,0.44-4.96,0.8c-0.35,0.08-0.7,0.16-1.04,0.24l-32.89,9.52   c-3.75,1.21-8.42,2.71-10.49,8.11l-0.06,0.15c-1.07,3.23-0.46,5.86-0.25,6.58c0.38,1.32,1.46,3.83,4.4,5.84   c4.98,3.38,9.82,1.98,13.36,0.96l16.03-4.64l-16.89,46.67l-0.11,0.31c-1.05,3.1-2.13,6.3-0.92,10.47   c0.83,2.84,2.43,5.06,4.74,6.57c2.42,1.64,4.91,2.18,7.29,2.18c2.59,0,5.04-0.64,7.12-1.18l34.73-10.06   c3.93-1.14,8.38-2.43,10.44-8.04c1.17-3.29,0.71-5.96,0.34-7.26C203.44,141.01,202.23,138.17,199.09,136.19"></path>		<path class="st2" d="M237.51,84.09c2.48,0,4.8,0.69,7.07,2.11c3.54,2.13,7.8,5.98,9.38,16.93c1.49,10.41-1.48,16-3.42,18.42   c-2.54,2.91-5.64,4.64-9.2,5.16c-3.86,0.55-6.91-0.62-8.79-1.71l-0.05-0.03c-5.59-3.09-8.96-8.98-10.03-17.5   c-0.56-4.29-1.07-14.84,6.15-20.35c2.68-2.1,5.69-2.71,6.86-2.88C236.17,84.14,236.85,84.09,237.51,84.09 M251.1,62.77   c-7.69-2.35-14.65-2.08-19.13-1.44c-17.04,2.45-29.78,13.49-34.09,29.55c-1.69,6.22-2.11,13.24-1.22,20.35   c2.61,18.2,13.11,32.01,28.06,36.93c4.26,1.45,8.75,2.17,13.41,2.17c2.22,0,4.48-0.16,6.77-0.49c12.8-1.83,23.38-8.85,29.83-19.8   c7.54-13.3,5.69-26.25,5.08-30.5C276.17,74.27,260.28,65.66,251.1,62.77"></path>		<path class="st2" d="M336.98,117.69c-2.97,2.47-6.33,3.73-9.91,3.63c-3.89-0.07-6.72-1.71-8.4-3.08l-0.05-0.04   c-5.03-3.94-7.42-10.28-7.12-18.87c0.13-4.32,1.3-14.82,9.31-19.11c2.82-1.56,5.72-1.76,7.02-1.76h0.2   c3.31,0.06,6.14,1.15,8.69,3.39c3.16,2.66,6.75,7.14,6.56,18.2C343.1,110.56,339.27,115.6,336.98,117.69 M346.87,59.75   c-7.23-3.55-14.14-4.38-18.66-4.46c-17.24-0.28-31.54,8.59-38.35,23.76c-2.66,5.88-4.19,12.73-4.43,19.9   c-0.32,18.38,7.86,33.68,21.83,40.91c5.86,3.11,12.47,4.74,19.65,4.86c0.27,0,0.54,0.01,0.81,0.01c16.96,0,27.16-9.21,31.79-14.81   c9.56-11.93,9.78-25.01,9.86-29.3C369.79,75.08,355.47,64.06,346.87,59.75"></path>		<path class="st2" d="M462.61,75.08l-0.13-0.1c-1-0.77-3.35-2.58-6.94-3.27c-2.41-0.46-4.91-0.37-7.42,0.29l-0.16,0.05   c-5.66,1.78-8.2,5.63-10.72,10.1l-12.82,23.73l-3.27-27.25l-0.04-0.3c-0.62-3.8-1.25-7.73-4.3-11.12c-3.37-3.62-7.6-4.67-8.81-4.9   c-3.66-0.71-6.7,0.14-7.92,0.48c-6.72,2.03-8.91,7.25-10.66,11.44l-19.03,51.31c-0.28,0.68-1.09,2.94-1.53,5.2   c-0.74,3.82-0.12,7.04,1.95,10.1c2.58,3.81,6.25,4.88,7.7,5.16c2.44,0.48,4.86,0.25,7.13-0.63c5.5-2.07,7.07-6.63,8.32-10.25   l7.42-20.47l2.68,24.28c0.59,4.23,1.21,8.61,5.72,11.84c2.42,1.84,4.51,2.25,5.52,2.44c2.47,0.48,4.88,0.22,6.28-0.17   c5.51-1.47,7.72-5.57,9.69-9.22l11.15-21.3c-0.18,7.07-0.43,14.3-0.7,22.02c-0.13,4.48-0.28,9.56,4.5,13.23l0.11,0.08   c1.52,1.08,3.44,1.9,5.27,2.25c0.82,0.16,1.62,0.23,2.39,0.23c4.89,0,8.67-2.97,10.72-6.07l0.13-0.21   c0.65-1.15,1.14-2.59,1.46-4.27c0.39-2.05,0.46-3.85,0.5-4.82l1.35-55.27v-0.08v-0.08C468.07,84.75,467.96,79.35,462.61,75.08"></path>		<g>			<g>				<g>					<defs>						<rect id="SVGID_00000152256642032576603360000004033023923378257537_" y="4.91" width="626" height="314"></rect>					</defs>					<clipPath id="SVGID_00000146466622724571966150000000813617713621987244_">						<use xlink:href="#SVGID_00000152256642032576603360000004033023923378257537_" style="overflow:visible;"></use>					</clipPath>					<path style="clip-path:url(#SVGID_00000146466622724571966150000000813617713621987244_);fill:#FFFFFF;" d="M574.59,116.03      l-0.11-0.13c-0.83-0.95-2.78-3.18-6.15-4.56c-2.28-0.93-4.74-1.32-7.33-1.17l-0.18,0.01c-5.89,0.64-9.14,3.91-12.49,7.8      l-17.24,20.75l2.15-27.36l0.02-0.3c0.14-3.84,0.29-7.82-2.03-11.75c-2.59-4.21-6.53-6.07-7.68-6.54      c-3.46-1.41-6.6-1.18-7.86-1.08c-6.98,0.67-10.16,5.35-12.7,9.13l-28.76,46.63c-0.44,0.67-1.63,2.66-2.48,4.74      c-1.48,3.61-1.5,6.88-0.07,10.29c1.78,4.25,5.17,6.01,6.54,6.57c2.3,0.94,4.71,1.2,7.12,0.77c5.79-0.95,8.23-5.11,10.17-8.41      l11.3-18.62l-2.14,24.33c-0.25,4.27-0.5,8.68,3.29,12.74c2.01,2.28,3.98,3.09,4.93,3.48c3.01,1.23,5.72,1.09,6.19,1.06      c5.69-0.36,8.66-3.94,11.32-7.14l15.11-18.7c-1.56,6.88-3.22,13.94-5.01,21.45c-1.01,4.37-2.16,9.32,1.82,13.86l0.09,0.1      c1.27,1.35,3,2.54,4.73,3.24c1.58,0.65,3.13,0.93,4.61,0.93c3.84,0,7.2-1.88,9.38-4.08l0.17-0.19c0.87-1.01,1.61-2.28,2.28-3.9      c0.79-1.93,1.21-3.69,1.43-4.64l12.18-53.92l0.03-0.16C578.04,126.59,578.99,121.26,574.59,116.03"></path>				</g>			</g>			<g>				<g>					<defs>						<rect id="SVGID_00000173129240865081292080000003677811990548868747_" y="4.91" width="626" height="314"></rect>					</defs>					<clipPath id="SVGID_00000060743177039805546470000014352974894542709377_">						<use xlink:href="#SVGID_00000173129240865081292080000003677811990548868747_" style="overflow:visible;"></use>					</clipPath>					<path style="clip-path:url(#SVGID_00000060743177039805546470000014352974894542709377_);fill:#FAEA26;" d="M70.22,243.49      c-4.06-1.05-8.01-2.5-11.75-4.33c-13.08-6.31-23.17-16.8-29.16-30.32c-4.63-10.44-6.28-21.65-4.91-33.34      c-8.25-6.2-14.75-14.31-18.85-23.55c-2.82-6.37-7.1-19.48-4.06-35.75l0.34-1.69l0.15-0.64c4.5-19.09,16.65-33.48,36.11-42.8      l0.61-0.29l33.46-14.84l1.38-0.51l0.5-0.19c2.51-0.97,7.75-2.99,14.53-4.1c2.54-0.42,5.16-0.68,7.82-0.78      c9.22-7.29,18.57-10.29,22.62-11.59l0.64-0.21l35.06-10.16l2.11-0.48c2.58-0.61,8.01-1.9,14.89-2.08      c0.43-0.01,1.07-0.02,1.71-0.02c4.26,0,8.55,0.45,12.77,1.34c11.4-7.69,24.77-12.8,38.74-14.81c4.42-0.63,8.92-0.95,13.38-0.95      c9.29,0,18.46,1.36,27.25,4.05l0.33,0.1c4.08,1.28,8.06,2.84,11.86,4.64c14.57-9.42,31.71-14.39,49.66-14.39      c0.54,0,1.09,0,1.63,0.01c9.57,0.16,24.22,1.95,39.64,9.51l0.35,0.18c2.34,1.17,4.63,2.45,6.86,3.81      c3.16-1.55,6.49-2.86,9.92-3.89l0.95-0.27c3.99-1.12,10.21-2.59,18.36-2.59c4.15,0,8.3,0.4,12.35,1.19      c4.64,0.89,13.68,3.27,23.07,9.29c3.96-0.73,8-1.09,12-1.09c4.14,0,8.3,0.4,12.37,1.18c15.18,2.93,24.7,10.28,27.83,12.7      l0.67,0.53c2.37,1.89,4.59,3.92,6.63,6.07c3.04-0.74,6.18-1.27,9.34-1.57l0.79-0.07c0.91-0.08,2.98-0.24,5.66-0.24      c8.62,0,16.98,1.63,24.83,4.84c5.41,2.21,13.34,6.36,20.89,13.68c8.3,0.14,16.3,1.77,23.86,4.85      c14.28,5.84,22.17,14.89,24.76,17.86l0.61,0.71c12.89,15.32,17.44,34.13,13.54,55.93l-0.31,1.63l-12.46,55.14      c-0.46,1.96-1.53,6.45-3.77,11.93c-2.73,6.65-6.18,12.36-10.56,17.46l-0.31,0.35l-1.98,2.14l-0.33,0.33      c-7.2,7.25-16.05,12.69-25.59,15.75l-256.64,75.61L70.22,243.49"></path>				</g>			</g>		</g>		<path class="st1" d="M593.38,97.26l-0.42-0.49c-1.71-1.97-6.92-7.94-16.18-11.73c-5.17-2.11-10.67-3.18-16.34-3.18   c-0.85,0-1.71,0.02-2.58,0.07l-0.38,0.02l-1.14,0.1c-1.61,0.18-3.15,0.43-4.62,0.75c-6.35-9.76-15.02-14.39-19.71-16.32   c-5.1-2.08-10.55-3.14-16.19-3.14c-1.77,0-3.18,0.11-3.78,0.15l-0.5,0.04c-8.42,0.8-14.93,3.82-19.9,7.41   c-2.2-5.61-5.95-11.56-12.4-16.71l-0.47-0.37c-2.07-1.59-8.36-6.45-18.19-8.35c-2.65-0.51-5.36-0.77-8.07-0.77   c-3.72,0-7.47,0.49-11.13,1.45l-0.34,0.09l-1.09,0.32c-1.55,0.48-3.01,1.04-4.39,1.64c-8.16-8.34-17.57-11.17-22.49-12.12   c-2.61-0.51-5.3-0.77-7.98-0.77c-5.35,0-9.52,0.99-12.19,1.74l-0.52,0.15c-7.51,2.27-13.04,6.08-17.12,10.19   c-4.75-4.55-10.25-8.43-16.46-11.54l-0.2-0.1c-11.64-5.71-22.71-7.06-29.96-7.18c-0.41-0.01-0.83-0.01-1.24-0.01   c-18.56,0-35.49,7.05-47.84,19.23c-5.99-4.55-12.84-8.11-20.45-10.5l-0.22-0.07c-6.62-2.02-13.54-3.05-20.58-3.05   c-3.39,0-6.79,0.24-10.13,0.72c-14.59,2.09-27.48,8.36-37.42,17.7c-5.62-2.7-11.67-3.99-17.32-3.99c-0.38,0-0.76,0-1.13,0.02   c-4.49,0.12-8.16,0.98-10.41,1.52l-1.46,0.33l-34.06,9.87l-0.37,0.12c-4.22,1.36-13.7,4.41-20.97,13.16   c-2.09-0.33-4.21-0.51-6.39-0.51c-2.17,0-4.32,0.18-6.4,0.52c-4.44,0.72-7.96,2.08-10.07,2.9l-0.63,0.24l-0.79,0.29L48.33,91.48   l-0.36,0.17c-5.32,2.55-19.48,9.33-23.73,27.36l-0.07,0.31l-0.22,1.07c-1.91,10.21,0.73,18.32,2.48,22.28   c3.47,7.8,9.71,14.27,17.62,18.23c1.95,0.97,3.93,1.77,5.97,2.4l-2,9.31l-0.11,0.59c-0.93,4.79-2.86,14.75,2.3,26.38   c3.77,8.5,10.1,15.09,18.31,19.05c2.56,1.25,5.2,2.2,7.91,2.86l236.14,73.36l249.49-73.49l-0.07-0.04   c6.11-1.96,11.8-5.4,16.44-10.07l0.33-0.33l0.83-0.89l0.33-0.38c2.76-3.21,4.96-6.86,6.74-11.2c1.57-3.85,2.35-7.14,2.69-8.54   l12.32-54.54l0.2-1.01C602.92,128.26,605.82,112.05,593.38,97.26"></path>		<path class="st2" d="M130.6,156.79c-4.76-2.32-8.82-0.52-12.4,1.06l-17.72,7.86l10.04-46.77c1.17-5.07,1.41-7.95-0.23-11.64   c-3.16-7.12-10.13-7.95-13.7-7.32c-1.74,0.27-3.38,0.91-4.82,1.46c-0.33,0.13-0.66,0.25-0.99,0.38l-31.3,13.88   c-3.55,1.7-7.98,3.82-9.3,9.45l-0.04,0.16c-0.62,3.34,0.33,5.86,0.64,6.55c0.56,1.26,1.97,3.61,5.15,5.2   c5.39,2.69,10,0.64,13.37-0.86l15.26-6.77l-10.43,48.53l-0.06,0.32c-0.62,3.21-1.27,6.53,0.5,10.5c1.2,2.7,3.09,4.69,5.58,5.88   c1.92,0.94,3.79,1.3,5.57,1.3c3.32,0,6.36-1.25,8.84-2.27l33.05-14.66c3.74-1.66,7.98-3.54,9.25-9.38c0.72-3.41-0.09-6-0.64-7.23   C135.57,160.98,133.98,158.33,130.6,156.79"></path>		<path class="st2" d="M199.09,136.19c-4.41-2.95-8.67-1.71-12.43-0.62l-18.61,5.4l16.25-44.99c1.84-4.86,2.47-7.69,1.34-11.57   c-2.17-7.48-8.96-9.23-12.59-9.11c-1.75,0.04-3.46,0.44-4.96,0.8c-0.35,0.08-0.7,0.16-1.04,0.24l-32.89,9.52   c-3.75,1.21-8.42,2.71-10.49,8.11l-0.06,0.15c-1.07,3.23-0.46,5.86-0.25,6.58c0.38,1.32,1.46,3.83,4.4,5.84   c4.98,3.38,9.82,1.98,13.36,0.96l16.03-4.64l-16.89,46.67l-0.11,0.31c-1.05,3.1-2.13,6.3-0.92,10.47   c0.83,2.84,2.43,5.06,4.74,6.57c2.42,1.64,4.91,2.18,7.29,2.18c2.59,0,5.04-0.64,7.13-1.18l34.72-10.06   c3.93-1.14,8.38-2.43,10.44-8.04c1.17-3.29,0.71-5.96,0.34-7.26C203.44,141.01,202.23,138.17,199.09,136.19"></path>		<path class="st2" d="M237.51,84.09c2.48,0,4.8,0.69,7.07,2.11c3.54,2.13,7.8,5.98,9.38,16.93c1.49,10.41-1.48,16-3.42,18.42   c-2.54,2.91-5.64,4.64-9.2,5.16c-3.86,0.55-6.91-0.62-8.79-1.71l-0.05-0.03c-5.59-3.09-8.96-8.98-10.03-17.5   c-0.56-4.29-1.07-14.84,6.15-20.35c2.68-2.1,5.69-2.71,6.86-2.88C236.17,84.14,236.85,84.09,237.51,84.09L237.51,84.09z    M251.1,62.77c-7.69-2.35-14.65-2.08-19.13-1.44c-17.04,2.45-29.78,13.49-34.09,29.55c-1.69,6.22-2.11,13.24-1.22,20.35   c2.61,18.2,13.11,32.01,28.06,36.93c4.26,1.45,8.75,2.17,13.41,2.17c2.22,0,4.48-0.16,6.77-0.49c12.8-1.83,23.38-8.85,29.83-19.8   c7.54-13.3,5.69-26.25,5.08-30.5C276.17,74.27,260.28,65.66,251.1,62.77"></path>		<path class="st2" d="M336.98,117.69c-2.97,2.47-6.33,3.73-9.91,3.63c-3.89-0.07-6.72-1.71-8.4-3.08l-0.05-0.04   c-5.03-3.94-7.42-10.28-7.12-18.87c0.13-4.32,1.3-14.82,9.31-19.11c2.82-1.56,5.72-1.76,7.02-1.76h0.2   c3.31,0.06,6.14,1.15,8.69,3.39c3.16,2.66,6.75,7.14,6.56,18.2C343.1,110.56,339.27,115.6,336.98,117.69L336.98,117.69z    M346.87,59.75c-7.23-3.55-14.14-4.38-18.66-4.46c-17.24-0.28-31.54,8.59-38.35,23.76c-2.66,5.88-4.19,12.73-4.43,19.9   c-0.32,18.38,7.86,33.68,21.83,40.91c5.86,3.11,12.47,4.74,19.65,4.86c0.27,0,0.54,0.01,0.81,0.01c16.96,0,27.16-9.21,31.79-14.81   c9.56-11.93,9.78-25.01,9.86-29.3C369.79,75.08,355.47,64.06,346.87,59.75"></path>		<path class="st2" d="M462.61,75.08l-0.13-0.1c-1-0.77-3.35-2.58-6.94-3.27c-2.41-0.46-4.91-0.37-7.42,0.29l-0.16,0.05   c-5.66,1.78-8.2,5.63-10.72,10.1l-12.82,23.73l-3.27-27.25l-0.04-0.3c-0.62-3.8-1.25-7.73-4.3-11.12c-3.37-3.62-7.6-4.67-8.81-4.9   c-3.66-0.71-6.7,0.14-7.92,0.48c-6.72,2.03-8.91,7.25-10.66,11.44l-19.03,51.31c-0.28,0.68-1.09,2.94-1.53,5.2   c-0.74,3.82-0.12,7.04,1.95,10.1c2.58,3.81,6.25,4.88,7.7,5.16c2.44,0.48,4.86,0.25,7.13-0.63c5.5-2.07,7.07-6.63,8.32-10.25   l7.42-20.47l2.68,24.28c0.59,4.23,1.21,8.61,5.72,11.84c2.42,1.84,4.51,2.25,5.52,2.44c2.47,0.48,4.88,0.22,6.28-0.17   c5.51-1.47,7.72-5.57,9.69-9.22l11.15-21.3c-0.18,7.07-0.43,14.3-0.7,22.02c-0.13,4.48-0.28,9.56,4.5,13.23l0.11,0.08   c1.52,1.08,3.44,1.9,5.27,2.25c0.82,0.16,1.62,0.23,2.39,0.23c4.89,0,8.67-2.97,10.72-6.07l0.13-0.21   c0.65-1.15,1.14-2.59,1.46-4.27c0.39-2.05,0.46-3.85,0.5-4.82l1.35-55.27v-0.08v-0.08C468.07,84.75,467.96,79.35,462.61,75.08"></path>		<path class="st2" d="M574.59,116.03l-0.11-0.13c-0.83-0.95-2.78-3.18-6.15-4.56c-2.28-0.93-4.74-1.32-7.33-1.17l-0.18,0.01   c-5.89,0.64-9.14,3.91-12.49,7.8l-17.24,20.75l2.15-27.36l0.02-0.3c0.14-3.84,0.29-7.82-2.03-11.75   c-2.59-4.21-6.53-6.07-7.68-6.54c-3.46-1.41-6.6-1.18-7.86-1.08c-6.98,0.67-10.16,5.35-12.7,9.13l-28.76,46.63   c-0.44,0.67-1.63,2.66-2.48,4.74c-1.48,3.61-1.5,6.88-0.07,10.29c1.78,4.25,5.17,6.01,6.54,6.57c2.3,0.94,4.71,1.2,7.12,0.77   c5.79-0.95,8.23-5.11,10.17-8.41l11.3-18.62l-2.14,24.33c-0.25,4.27-0.5,8.68,3.29,12.74c2.01,2.28,3.98,3.09,4.93,3.48   c3.01,1.23,5.72,1.09,6.19,1.06c5.69-0.36,8.66-3.94,11.32-7.14l15.11-18.7c-1.56,6.88-3.22,13.94-5.01,21.45   c-1.01,4.37-2.16,9.32,1.82,13.86l0.09,0.1c1.27,1.35,3,2.54,4.73,3.24c1.58,0.65,3.13,0.93,4.61,0.93c3.84,0,7.2-1.88,9.38-4.08   l0.17-0.19c0.87-1.01,1.61-2.28,2.28-3.9c0.79-1.93,1.21-3.69,1.43-4.64l12.18-53.92l0.03-0.16   C578.04,126.59,578.99,121.26,574.59,116.03"></path>	</g></g></svg>