<svg xmlns="http://www.w3.org/2000/svg" id="uuid-0ed4cbe4-621c-4bfc-b826-28a90f6afeb8" viewBox="0 0 7.93 7.4"><path id="uuid-f2bc4a23-7843-4973-a330-62614e9f4d6c" d="M3.7,1.2l2.51,2.49-2.51,2.5c-.28.27-.28.72,0,1,0,0,0,0,0,0,.28.28.73.28,1.01,0l3.01-3c.28-.27.28-.71.01-.99,0,0,0,0-.01-.01L4.71.21c-.28-.28-.73-.28-1.01,0-.28.28-.28.72,0,1,0,0,0,0,0,0Z" style="fill:#000; stroke-width:0px;"></path><path id="uuid-c41a1219-86d8-4441-9c4b-23d8b0938236" d="M2.43,3.98c.16-.15.16-.41,0-.57,0,0,0,0,0,0L.7,1.7c-.16-.16-.42-.16-.58,0-.16.15-.16.41,0,.57,0,0,0,0,0,0l1.44,1.43L.12,5.12c-.16.15-.16.41,0,.57,0,0,0,0,0,0,.16.16.42.16.58,0l1.73-1.71Z" style="fill:#000; stroke-width:0px;"></path></svg>