<svg xmlns="http://www.w3.org/2000/svg" width="8.086" height="9.729" viewBox="0 0 8.086 9.729">
  <g id="noun-arrows-779785" transform="translate(8.086) rotate(90)">
    <path id="Path_2267" data-name="Path 2267" d="M520.8,54.634a.945.945,0,0,1-.276.674L517.439,58.4a.887.887,0,0,1-.992.21,1.028,1.028,0,0,1-.637-.915.9.9,0,0,1,.281-.643l2.414-2.415-2.414-2.415a.9.9,0,0,1-.281-.643h0a1.028,1.028,0,0,1,.637-.915.888.888,0,0,1,.992.21l3.088,3.089a.946.946,0,0,1,.276.674Z" transform="translate(-515.81 -50.591)"/>
    <path id="Path_2268" data-name="Path 2268" d="M10.292,55.308,7.2,58.4a.887.887,0,0,1-.992.21,1.027,1.027,0,0,1-.637-.915.9.9,0,0,1,.281-.643L8.27,54.634,5.856,52.219a.9.9,0,0,1-.281-.643h0a1.028,1.028,0,0,1,.637-.915.888.888,0,0,1,.992.21l3.088,3.089a.961.961,0,0,1,0,1.348Z" transform="translate(-0.84 -50.591)"/>
  </g>
</svg>
